<svg xmlns="http://www.w3.org/2000/svg" width="342.24" height="35" viewBox="0 0 342.24 35"><rect class="svg__rect" x="0" y="0" width="188.44" height="35" fill="#2B546A"/><rect class="svg__rect" x="186.44" y="0" width="155.8" height="35" fill="#EDF2FA"/><path class="svg__text" d="M15.70 22L14.22 22L14.22 13.47L17.48 13.47Q18.91 13.47 19.75 14.21Q20.59 14.96 20.59 16.18L20.59 16.18Q20.59 17.44 19.77 18.13Q18.95 18.83 17.46 18.83L17.46 18.83L15.70 18.83L15.70 22ZM15.70 14.66L15.70 17.64L17.48 17.64Q18.27 17.64 18.69 17.27Q19.10 16.90 19.10 16.19L19.10 16.19Q19.10 15.50 18.68 15.09Q18.26 14.68 17.52 14.66L17.52 14.66L15.70 14.66ZM26.36 22L24.88 22L24.88 13.47L27.88 13.47Q29.35 13.47 30.15 14.13Q30.96 14.79 30.96 16.05L30.96 16.05Q30.96 16.90 30.54 17.48Q30.13 18.06 29.39 18.37L29.39 18.37L31.31 21.92L31.31 22L29.72 22L28.01 18.71L26.36 18.71L26.36 22ZM26.36 14.66L26.36 17.52L27.88 17.52Q28.63 17.52 29.05 17.15Q29.48 16.77 29.48 16.11L29.48 16.11Q29.48 15.43 29.09 15.05Q28.70 14.68 27.92 14.66L27.92 14.66L26.36 14.66ZM35.08 18.00L35.08 18.00L35.08 17.52Q35.08 16.28 35.52 15.32Q35.97 14.37 36.77 13.86Q37.58 13.35 38.62 13.35Q39.66 13.35 40.47 13.85Q41.28 14.35 41.72 15.29Q42.15 16.23 42.16 17.48L42.16 17.48L42.16 17.96Q42.16 19.21 41.73 20.16Q41.29 21.10 40.49 21.61Q39.68 22.12 38.63 22.12L38.63 22.12Q37.60 22.12 36.78 21.61Q35.97 21.10 35.53 20.17Q35.09 19.23 35.08 18.00ZM36.56 17.46L36.56 17.96Q36.56 19.36 37.11 20.13Q37.66 20.90 38.63 20.90L38.63 20.90Q39.62 20.90 40.15 20.15Q40.68 19.40 40.68 17.96L40.68 17.96L40.68 17.51Q40.68 16.09 40.14 15.34Q39.61 14.58 38.62 14.58L38.62 14.58Q37.66 14.58 37.12 15.33Q36.58 16.09 36.56 17.46L36.56 17.46ZM46.38 18.13L46.38 18.13L46.38 17.46Q46.38 15.53 47.31 14.44Q48.23 13.35 49.89 13.35L49.89 13.35Q51.31 13.35 52.15 14.05Q52.99 14.76 53.16 16.08L53.16 16.08L51.71 16.08Q51.46 14.54 49.92 14.54L49.92 14.54Q48.92 14.54 48.40 15.26Q47.89 15.98 47.87 17.37L47.87 17.37L47.87 18.02Q47.87 19.40 48.45 20.17Q49.03 20.93 50.07 20.93L50.07 20.93Q51.21 20.93 51.69 20.42L51.69 20.42L51.69 18.75L49.93 18.75L49.93 17.62L53.16 17.62L53.16 20.89Q52.70 21.50 51.88 21.81Q51.06 22.12 50.02 22.12L50.02 22.12Q48.95 22.12 48.12 21.63Q47.29 21.14 46.85 20.24Q46.40 19.33 46.38 18.13ZM58.56 22L57.02 22L60.24 13.47L61.57 13.47L64.80 22L63.25 22L62.56 20.01L59.25 20.01L58.56 22ZM60.90 15.28L59.67 18.82L62.14 18.82L60.90 15.28ZM70.44 14.66L67.80 14.66L67.80 13.47L74.57 13.47L74.57 14.66L71.91 14.66L71.91 22L70.44 22L70.44 14.66ZM83.90 22L78.32 22L78.32 13.47L83.86 13.47L83.86 14.66L79.81 14.66L79.81 17.02L83.31 17.02L83.31 18.19L79.81 18.19L79.81 20.82L83.90 20.82L83.90 22ZM89.58 22L88.10 22L88.10 13.47L89.58 13.47L93.39 19.54L93.39 13.47L94.87 13.47L94.87 22L93.38 22L89.58 15.95L89.58 22ZM105.18 22L99.61 22L99.61 13.47L105.14 13.47L105.14 14.66L101.09 14.66L101.09 17.02L104.59 17.02L104.59 18.19L101.09 18.19L101.09 20.82L105.18 20.82L105.18 22ZM110.47 22L108.75 22L111.39 17.70L108.81 13.47L110.52 13.47L112.31 16.55L114.11 13.47L115.82 13.47L113.24 17.70L115.88 22L114.15 22L112.31 18.87L110.47 22ZM121.64 14.66L119.01 14.66L119.01 13.47L125.77 13.47L125.77 14.66L123.11 14.66L123.11 22L121.64 22L121.64 14.66ZM134.89 22L129.53 22L129.53 13.47L131.01 13.47L131.01 20.82L134.89 20.82L134.89 22ZM144.59 22L139.01 22L139.01 13.47L144.55 13.47L144.55 14.66L140.49 14.66L140.49 17.02L144.00 17.02L144.00 18.19L140.49 18.19L140.49 20.82L144.59 20.82L144.59 22ZM151.08 22L148.02 13.47L149.64 13.47L151.79 20.14L153.96 13.47L155.59 13.47L152.52 22L151.08 22ZM165.11 22L159.54 22L159.54 13.47L165.07 13.47L165.07 14.66L161.02 14.66L161.02 17.02L164.52 17.02L164.52 18.19L161.02 18.19L161.02 20.82L165.11 20.82L165.11 22ZM174.66 22L169.31 22L169.31 13.47L170.79 13.47L170.79 20.82L174.66 20.82L174.66 22Z" fill="#FFFFFF"/><path class="svg__text" d="M203.01 22L200.63 22L200.63 13.60L203.01 13.60L203.01 22ZM210.51 22L208.18 22L208.18 13.60L210.14 13.60L213.85 18.07L213.85 13.60L216.17 13.60L216.17 22L214.22 22L210.51 17.52L210.51 22ZM223.92 22L220.33 13.60L222.90 13.60L225.18 19.07L227.50 13.60L229.85 13.60L226.26 22L223.92 22ZM240.75 22L234.01 22L234.01 13.60L240.60 13.60L240.60 15.44L236.36 15.44L236.36 16.85L240.10 16.85L240.10 18.63L236.36 18.63L236.36 20.17L240.75 20.17L240.75 22ZM247.89 22L245.56 22L245.56 13.60L247.51 13.60L251.22 18.07L251.22 13.60L253.55 13.60L253.55 22L251.60 22L247.89 17.52L247.89 22ZM260.50 15.48L257.92 15.48L257.92 13.60L265.44 13.60L265.44 15.48L262.88 15.48L262.88 22L260.50 22L260.50 15.48ZM269.39 17.80L269.39 17.80Q269.39 16.55 269.99 15.55Q270.59 14.56 271.66 14.00Q272.72 13.43 274.05 13.43L274.05 13.43Q275.38 13.43 276.45 14.00Q277.51 14.56 278.12 15.55Q278.72 16.55 278.72 17.80L278.72 17.80Q278.72 19.05 278.12 20.04Q277.51 21.04 276.45 21.60Q275.39 22.17 274.05 22.17L274.05 22.17Q272.72 22.17 271.66 21.60Q270.59 21.04 269.99 20.04Q269.39 19.05 269.39 17.80ZM271.78 17.80L271.78 17.80Q271.78 18.51 272.09 19.05Q272.39 19.60 272.90 19.90Q273.42 20.20 274.05 20.20L274.05 20.20Q274.69 20.20 275.21 19.90Q275.72 19.60 276.02 19.05Q276.32 18.51 276.32 17.80L276.32 17.80Q276.32 17.09 276.02 16.54Q275.72 16 275.21 15.70Q274.69 15.40 274.05 15.40L274.05 15.40Q273.41 15.40 272.90 15.70Q272.39 16 272.09 16.54Q271.78 17.09 271.78 17.80ZM285.83 22L283.45 22L283.45 13.60L287.29 13.60Q288.44 13.60 289.27 13.98Q290.11 14.35 290.57 15.06Q291.03 15.76 291.03 16.71L291.03 16.71Q291.03 17.62 290.60 18.30Q290.17 18.98 289.38 19.36L289.38 19.36L291.19 22L288.65 22L287.12 19.77L285.83 19.77L285.83 22ZM285.83 15.47L285.83 17.93L287.15 17.93Q287.88 17.93 288.25 17.61Q288.62 17.29 288.62 16.71L288.62 16.71Q288.62 16.12 288.25 15.79Q287.88 15.47 287.15 15.47L287.15 15.47L285.83 15.47ZM297.94 18.95L294.74 13.60L297.24 13.60L299.24 16.94L301.23 13.60L303.53 13.60L300.31 18.99L300.31 22L297.94 22L297.94 18.95ZM317.17 22L313.58 13.60L316.15 13.60L318.43 19.07L320.76 13.60L323.11 13.60L319.51 22L317.17 22ZM328.06 15.44L326.49 15.44L326.49 13.60L330.43 13.60L330.43 22L328.06 22L328.06 15.44Z" fill="#2B546A" x="199.44"/></svg>